<svg xmlns="http://www.w3.org/2000/svg" width="1487.549" height="28.751" viewBox="0 0 1487.549 28.751">
  <g id="Group_31" data-name="Group 31" transform="translate(22.961 -15.624)">
    <g id="Group_29" data-name="Group 29">
      <path id="Path_159" data-name="Path 159" d="M566.033,7.3V20.866l10.979,6.713,22.07-13.5L577.012.586Z" transform="translate(51.755 15.917)" fill="#fff" stroke="#002b7f" stroke-width="1.5"/>
      <path id="Path_160" data-name="Path 160" d="M566.033,7.3V20.866l10.979,6.713,22.07-13.5L577.012.586Z" transform="translate(28.755 15.917)" fill="#fff" stroke="#002b7f" stroke-width="1.5"/>
      <path id="Path_161" data-name="Path 161" d="M566.033,7.3V20.866l10.979,6.713,22.07-13.5L577.012.586Z" transform="translate(7.755 15.917)" fill="#fff" stroke="#002b7f" stroke-width="1.5"/>
      <path id="Path_162" data-name="Path 162" d="M566.033,7.3V20.866l10.979,6.713,22.07-13.5L577.012.586Z" transform="translate(-15.245 15.917)" fill="#fff" stroke="#002b7f" stroke-width="1.5"/>
      <path id="Path_163" data-name="Path 163" d="M566.033,7.3V20.866l10.979,6.713,22.07-13.5L577.012.586Z" transform="translate(-36.245 15.917)" fill="#fff" stroke="#002b7f" stroke-width="1.5"/>
      <path id="Path_164" data-name="Path 164" d="M566.033,7.3V20.866l10.979,6.713,22.07-13.5L577.012.586Z" transform="translate(-59.245 15.917)" fill="#fff" stroke="#002b7f" stroke-width="1.5"/>
      <path id="Path_165" data-name="Path 165" d="M566.033,7.3V20.866l10.979,6.713,22.07-13.5L577.012.586Z" transform="translate(-80.245 15.917)" fill="#fff" stroke="#002b7f" stroke-width="1.5"/>
      <path id="Path_166" data-name="Path 166" d="M566.033,7.3V20.866l10.979,6.713,22.07-13.5L577.012.586Z" transform="translate(-103.245 15.917)" fill="#fff" stroke="#002b7f" stroke-width="1.5"/>
      <path id="Path_167" data-name="Path 167" d="M566.033,7.3V20.866l10.979,6.713,22.07-13.5L577.012.586Z" transform="translate(-124.245 15.917)" fill="#fff" stroke="#002b7f" stroke-width="1.5"/>
      <path id="Path_168" data-name="Path 168" d="M566.033,7.3V20.866l10.979,6.713,22.07-13.5L577.012.586Z" transform="translate(-147.245 15.917)" fill="#fff" stroke="#002b7f" stroke-width="1.5"/>
      <path id="Path_169" data-name="Path 169" d="M566.033,7.3V20.866l10.979,6.713,22.07-13.5L577.012.586Z" transform="translate(-168.245 15.917)" fill="#fff" stroke="#002b7f" stroke-width="1.5"/>
      <path id="Path_170" data-name="Path 170" d="M566.033,7.3V20.866l10.979,6.713,22.07-13.5L577.012.586Z" transform="translate(-191.245 15.917)" fill="#fff" stroke="#002b7f" stroke-width="1.5"/>
      <path id="Path_171" data-name="Path 171" d="M566.033,7.3V20.866l10.979,6.713,22.07-13.5L577.012.586Z" transform="translate(-212.245 15.917)" fill="#fff" stroke="#002b7f" stroke-width="1.5"/>
      <path id="Path_172" data-name="Path 172" d="M566.033,7.3V20.866l10.979,6.713,22.07-13.5L577.012.586Z" transform="translate(-235.245 15.917)" fill="#fff" stroke="#002b7f" stroke-width="1.5"/>
      <path id="Path_173" data-name="Path 173" d="M566.033,7.3V20.866l10.979,6.713,22.07-13.5L577.012.586Z" transform="translate(-256.245 15.917)" fill="#fff" stroke="#002b7f" stroke-width="1.5"/>
      <path id="Path_174" data-name="Path 174" d="M566.033,7.3V20.866l10.979,6.713,22.07-13.5L577.012.586Z" transform="translate(-279.245 15.917)" fill="#fff" stroke="#002b7f" stroke-width="1.5"/>
      <path id="Path_175" data-name="Path 175" d="M566.033,7.3V20.866l10.979,6.713,22.07-13.5L577.012.586Z" transform="translate(-301.245 15.917)" fill="#fff" stroke="#002b7f" stroke-width="1.5"/>
      <path id="Path_176" data-name="Path 176" d="M566.033,7.3V20.866l10.979,6.713,22.07-13.5L577.012.586Z" transform="translate(-324.245 15.917)" fill="#fff" stroke="#002b7f" stroke-width="1.5"/>
      <path id="Path_177" data-name="Path 177" d="M566.033,7.3V20.866l10.979,6.713,22.07-13.5L577.012.586Z" transform="translate(-345.245 15.917)" fill="#fff" stroke="#002b7f" stroke-width="1.5"/>
      <path id="Path_178" data-name="Path 178" d="M566.033,7.3V20.866l10.979,6.713,22.07-13.5L577.012.586Z" transform="translate(-368.245 15.917)" fill="#fff" stroke="#002b7f" stroke-width="1.5"/>
      <path id="Path_179" data-name="Path 179" d="M566.033,7.3V20.866l10.979,6.713,22.07-13.5L577.012.586Z" transform="translate(-389.245 15.917)" fill="#fff" stroke="#002b7f" stroke-width="1.5"/>
      <path id="Path_180" data-name="Path 180" d="M566.033,7.3V20.866l10.979,6.713,22.07-13.5L577.012.586Z" transform="translate(-412.245 15.917)" fill="#fff" stroke="#002b7f" stroke-width="1.5"/>
      <path id="Path_181" data-name="Path 181" d="M566.033,7.3V20.866l10.979,6.713,22.07-13.5L577.012.586Z" transform="translate(-433.245 15.917)" fill="#fff" stroke="#002b7f" stroke-width="1.5"/>
      <path id="Path_182" data-name="Path 182" d="M566.033,7.3V20.866l10.979,6.713,22.07-13.5L577.012.586Z" transform="translate(-456.245 15.917)" fill="#fff" stroke="#002b7f" stroke-width="1.5"/>
      <path id="Path_183" data-name="Path 183" d="M566.033,7.3V20.866l10.979,6.713,22.07-13.5L577.012.586Z" transform="translate(-477.245 15.917)" fill="#fff" stroke="#002b7f" stroke-width="1.5"/>
      <path id="Path_184" data-name="Path 184" d="M566.033,7.3V20.866l10.979,6.713,22.07-13.5L577.012.586Z" transform="translate(-500.245 15.917)" fill="#fff" stroke="#002b7f" stroke-width="1.5"/>
      <path id="Path_185" data-name="Path 185" d="M566.033,7.3V20.866l10.979,6.713,22.07-13.5L577.012.586Z" transform="translate(-521.245 15.917)" fill="#fff" stroke="#002b7f" stroke-width="1.5"/>
      <path id="Path_186" data-name="Path 186" d="M566.033,7.3V20.866l10.979,6.713,22.07-13.5L577.012.586Z" transform="translate(-544.245 15.917)" fill="#fff" stroke="#002b7f" stroke-width="1.5"/>
      <path id="Path_187" data-name="Path 187" d="M566.033,7.3V20.866l10.979,6.713,22.07-13.5L577.012.586Z" transform="translate(-565.245 15.917)" fill="#fff" stroke="#002b7f" stroke-width="1.5"/>
      <path id="Path_188" data-name="Path 188" d="M566.033,7.3V20.866l10.979,6.713,22.07-13.5L577.012.586Z" transform="translate(-588.245 15.917)" fill="#fff" stroke="#002b7f" stroke-width="1.5"/>
    </g>
    <g id="Group_30" data-name="Group 30" transform="translate(1441.626 60) rotate(180)">
      <path id="Path_159-2" data-name="Path 159" d="M566.033,7.3V20.866l10.979,6.713,22.07-13.5L577.012.586Z" transform="translate(51.755 15.917)" fill="#fff" stroke="#002b7f" stroke-width="1.5"/>
      <path id="Path_160-2" data-name="Path 160" d="M566.033,7.3V20.866l10.979,6.713,22.07-13.5L577.012.586Z" transform="translate(28.755 15.917)" fill="#fff" stroke="#002b7f" stroke-width="1.5"/>
      <path id="Path_161-2" data-name="Path 161" d="M566.033,7.3V20.866l10.979,6.713,22.07-13.5L577.012.586Z" transform="translate(7.755 15.917)" fill="#fff" stroke="#002b7f" stroke-width="1.5"/>
      <path id="Path_162-2" data-name="Path 162" d="M566.033,7.3V20.866l10.979,6.713,22.07-13.5L577.012.586Z" transform="translate(-15.245 15.917)" fill="#fff" stroke="#002b7f" stroke-width="1.5"/>
      <path id="Path_163-2" data-name="Path 163" d="M566.033,7.3V20.866l10.979,6.713,22.07-13.5L577.012.586Z" transform="translate(-36.245 15.917)" fill="#fff" stroke="#002b7f" stroke-width="1.5"/>
      <path id="Path_164-2" data-name="Path 164" d="M566.033,7.3V20.866l10.979,6.713,22.07-13.5L577.012.586Z" transform="translate(-59.245 15.917)" fill="#fff" stroke="#002b7f" stroke-width="1.5"/>
      <path id="Path_165-2" data-name="Path 165" d="M566.033,7.3V20.866l10.979,6.713,22.07-13.5L577.012.586Z" transform="translate(-80.245 15.917)" fill="#fff" stroke="#002b7f" stroke-width="1.5"/>
      <path id="Path_166-2" data-name="Path 166" d="M566.033,7.3V20.866l10.979,6.713,22.07-13.5L577.012.586Z" transform="translate(-103.245 15.917)" fill="#fff" stroke="#002b7f" stroke-width="1.5"/>
      <path id="Path_167-2" data-name="Path 167" d="M566.033,7.3V20.866l10.979,6.713,22.07-13.5L577.012.586Z" transform="translate(-124.245 15.917)" fill="#fff" stroke="#002b7f" stroke-width="1.5"/>
      <path id="Path_168-2" data-name="Path 168" d="M566.033,7.3V20.866l10.979,6.713,22.07-13.5L577.012.586Z" transform="translate(-147.245 15.917)" fill="#fff" stroke="#002b7f" stroke-width="1.5"/>
      <path id="Path_169-2" data-name="Path 169" d="M566.033,7.3V20.866l10.979,6.713,22.07-13.5L577.012.586Z" transform="translate(-168.245 15.917)" fill="#fff" stroke="#002b7f" stroke-width="1.5"/>
      <path id="Path_170-2" data-name="Path 170" d="M566.033,7.3V20.866l10.979,6.713,22.07-13.5L577.012.586Z" transform="translate(-191.245 15.917)" fill="#fff" stroke="#002b7f" stroke-width="1.5"/>
      <path id="Path_171-2" data-name="Path 171" d="M566.033,7.3V20.866l10.979,6.713,22.07-13.5L577.012.586Z" transform="translate(-212.245 15.917)" fill="#fff" stroke="#002b7f" stroke-width="1.5"/>
      <path id="Path_172-2" data-name="Path 172" d="M566.033,7.3V20.866l10.979,6.713,22.07-13.5L577.012.586Z" transform="translate(-235.245 15.917)" fill="#fff" stroke="#002b7f" stroke-width="1.5"/>
      <path id="Path_173-2" data-name="Path 173" d="M566.033,7.3V20.866l10.979,6.713,22.07-13.5L577.012.586Z" transform="translate(-256.245 15.917)" fill="#fff" stroke="#002b7f" stroke-width="1.5"/>
      <path id="Path_174-2" data-name="Path 174" d="M566.033,7.3V20.866l10.979,6.713,22.07-13.5L577.012.586Z" transform="translate(-279.245 15.917)" fill="#fff" stroke="#002b7f" stroke-width="1.5"/>
      <path id="Path_175-2" data-name="Path 175" d="M566.033,7.3V20.866l10.979,6.713,22.07-13.5L577.012.586Z" transform="translate(-301.245 15.917)" fill="#fff" stroke="#002b7f" stroke-width="1.5"/>
      <path id="Path_176-2" data-name="Path 176" d="M566.033,7.3V20.866l10.979,6.713,22.07-13.5L577.012.586Z" transform="translate(-324.245 15.917)" fill="#fff" stroke="#002b7f" stroke-width="1.5"/>
      <path id="Path_177-2" data-name="Path 177" d="M566.033,7.3V20.866l10.979,6.713,22.07-13.5L577.012.586Z" transform="translate(-345.245 15.917)" fill="#fff" stroke="#002b7f" stroke-width="1.5"/>
      <path id="Path_178-2" data-name="Path 178" d="M566.033,7.3V20.866l10.979,6.713,22.07-13.5L577.012.586Z" transform="translate(-368.245 15.917)" fill="#fff" stroke="#002b7f" stroke-width="1.5"/>
      <path id="Path_179-2" data-name="Path 179" d="M566.033,7.3V20.866l10.979,6.713,22.07-13.5L577.012.586Z" transform="translate(-389.245 15.917)" fill="#fff" stroke="#002b7f" stroke-width="1.5"/>
      <path id="Path_180-2" data-name="Path 180" d="M566.033,7.3V20.866l10.979,6.713,22.07-13.5L577.012.586Z" transform="translate(-412.245 15.917)" fill="#fff" stroke="#002b7f" stroke-width="1.5"/>
      <path id="Path_181-2" data-name="Path 181" d="M566.033,7.3V20.866l10.979,6.713,22.07-13.5L577.012.586Z" transform="translate(-433.245 15.917)" fill="#fff" stroke="#002b7f" stroke-width="1.5"/>
      <path id="Path_182-2" data-name="Path 182" d="M566.033,7.3V20.866l10.979,6.713,22.07-13.5L577.012.586Z" transform="translate(-456.245 15.917)" fill="#fff" stroke="#002b7f" stroke-width="1.5"/>
      <path id="Path_183-2" data-name="Path 183" d="M566.033,7.3V20.866l10.979,6.713,22.07-13.5L577.012.586Z" transform="translate(-477.245 15.917)" fill="#fff" stroke="#002b7f" stroke-width="1.5"/>
      <path id="Path_184-2" data-name="Path 184" d="M566.033,7.3V20.866l10.979,6.713,22.07-13.5L577.012.586Z" transform="translate(-500.245 15.917)" fill="#fff" stroke="#002b7f" stroke-width="1.5"/>
      <path id="Path_185-2" data-name="Path 185" d="M566.033,7.3V20.866l10.979,6.713,22.07-13.5L577.012.586Z" transform="translate(-521.245 15.917)" fill="#fff" stroke="#002b7f" stroke-width="1.5"/>
      <path id="Path_186-2" data-name="Path 186" d="M566.033,7.3V20.866l10.979,6.713,22.07-13.5L577.012.586Z" transform="translate(-544.245 15.917)" fill="#fff" stroke="#002b7f" stroke-width="1.5"/>
      <path id="Path_187-2" data-name="Path 187" d="M566.033,7.3V20.866l10.979,6.713,22.07-13.5L577.012.586Z" transform="translate(-565.245 15.917)" fill="#fff" stroke="#002b7f" stroke-width="1.5"/>
      <path id="Path_188-2" data-name="Path 188" d="M566.033,7.3V20.866l10.979,6.713,22.07-13.5L577.012.586Z" transform="translate(-588.245 15.917)" fill="#fff" stroke="#002b7f" stroke-width="1.5"/>
    </g>
  </g>
</svg>
